<svg xmlns="http://www.w3.org/2000/svg" width="35.187" height="35.187" viewBox="0 0 35.187 35.187"><defs><style>.a{fill:#0a4f86;}.a,.c{stroke:#0a4f86;}.b,.c{fill:#fff;}.c{opacity:0.8;}</style></defs><g transform="translate(383.227 -305.038) rotate(90)"><path class="a" d="M51.835,7.366A8.945,8.945,0,1,0,39.185,20.017l8.148,8.148L59.983,15.514Z" transform="translate(268.974 343.794)"/><path class="b" d="M50.7,17.443a.667.667,0,0,1-.472-1.139,5.117,5.117,0,0,1,7.229,0,.667.667,0,1,1-.943.943,3.783,3.783,0,0,0-5.342,0,.664.664,0,0,1-.472.2Z" transform="translate(260.636 337.567)"/><path class="c" d="M85.612,41.143l-8.149-8.148L64.813,45.646l8.148,8.148A8.945,8.945,0,0,0,85.612,41.143Z" transform="translate(251.493 326.313)"/></g></svg>