<svg xmlns="http://www.w3.org/2000/svg" width="38.154" height="38.155" viewBox="0 0 38.154 38.155"><defs><style>.a{fill:#575b72;}.a,.b{stroke:rgba(22,134,197,0.16);}.b{fill:#0a4f86;}</style></defs><g transform="translate(0.707 0.707)"><path class="a" d="M5.146,375.9l2.23-2.23,1.5,1.5,1.524-1.524-8.229-8.229L.651,366.946l1.579,1.579L0,370.756Z" transform="translate(26.336 -365.422)"/><path class="a" d="M355.308,9.683l1.524,1.524,5.7-5.7,1.539,1.539,2.44-2.44-4.6-4.6-2.44,2.44,1.539,1.539Z" transform="translate(-355.308 25.533)"/><path class="b" d="M74.942,124.053l-3.088-3.088,1.524-1.524,3.088,3.088L78.1,120.9l-3.088-3.089,1.524-1.524,3.088,3.089,1.632-1.632-3.088-3.088,1.524-1.524,3.088,3.088,1.632-1.632L81.322,111.5l1.524-1.524,3.088,3.088.069-.069a2.209,2.209,0,0,1,3.125,0l1.524-1.524h0l-9.3-9.3-1.524,1.524,0,0a2.209,2.209,0,0,1,0,3.122L66,120.644l6.177,6.177Z" transform="translate(-58.655 -97.422)"/></g></svg>