<svg xmlns="http://www.w3.org/2000/svg" width="300.885" height="284.93" viewBox="0 0 300.885 284.93"><defs><style>.a{fill:#d8f1ff;}.b,.i{fill:#fff;}.c{fill:#494f7a;}.d{fill:#20213b;}.e{fill:#d6e0e8;}.f{fill:#f8fcff;}.g{fill:#e8505b;}.h{fill:#b6cfe2;}.i{font-size:15px;font-family:Quicksand-Bold, Quicksand;font-weight:700;}.j{fill:#eac3b0;}.k{fill:#ffbe9d;}.l{fill:#ffb18a;}.m{fill:#db938b;stroke:#222221;stroke-linecap:round;stroke-linejoin:round;}.n{fill:#e2a88f;}.o{fill:#a1b7cb;}.p{fill:#dde6ee;}.q{fill:#333753;}.r{fill:#2d3158;}.s{fill:#d7867b;}</style></defs><g transform="translate(-42.115 -201.078)"><g transform="translate(7.444 155.711)"><path class="a" d="M57.129,111.289c-14.356,17.5-25.994,39.889-21.377,62.051C38.6,187,47.28,198.747,51.3,212.106c6.254,20.763.918,44.141,9.515,64.049,7.431,17.209,24.986,29.117,43.589,31.418s37.766-4.419,52.127-16.467c13.2-11.076,24.661-27.363,41.861-28.417,11.822-.725,22.517,6.238,33.32,11.091,16.8,7.545,35.984,10.269,53.931,6.151s34.444-15.385,43.526-31.4c5.92-10.441,8.56-23.325,4.453-34.6-4.457-12.235-15.721-20.414-26.011-28.393-15.492-12.012-30.636-26.08-36.968-44.633-5.26-15.414-3.88-32.4-8.427-48.037C253.448,62.7,221.857,43.151,191.1,46.2c-13.813,1.37-28.558,4.914-42.154,7.719a151.785,151.785,0,0,0-47.93,19.169A173.486,173.486,0,0,0,57.129,111.289Z" transform="translate(-0.056 -0.524)"/><path class="b" d="M274.845,105.589c-.127-.168-.248-.338-.362-.515a4.407,4.407,0,0,0-.633-.762,9.761,9.761,0,0,1-.809-.908,8.239,8.239,0,0,0-.577-.764c-.094-.1-.182-.212-.274-.316a1.348,1.348,0,0,0-.48-.327,1.415,1.415,0,0,0-.809-.367,1.016,1.016,0,0,0-.324-.055.546.546,0,0,0-.6.262,1.047,1.047,0,0,0-.227.352,1.036,1.036,0,0,0-.168.356,1.649,1.649,0,0,0,0,.629c-.11.99.756,2.037,1.4,2.746a8.942,8.942,0,0,0,.817.8,2.127,2.127,0,0,0,.5.357c.182.08.365.157.55.231s.353.133.531.191a1.3,1.3,0,0,0,1.365-.466A1.277,1.277,0,0,0,274.845,105.589Z" transform="translate(-76.899 -18.742)"/><path class="b" d="M284.622,96.149c-.022-.129-.051-.256-.075-.383-.007-.04-.048-.345-.055-.365-.007-.087-.015-.18-.017-.2-.009-.129-.02-.256-.033-.384a10.366,10.366,0,0,1-.04-1.685c.017-.26.051-.518.077-.778a2.768,2.768,0,0,0-.039-.832,2.431,2.431,0,0,0-.266-1.162,1.292,1.292,0,0,0-.879-.873,1.265,1.265,0,0,0-1.123.252,1.71,1.71,0,0,0-.743.655c-.071.109-.377.52-.035.16a3.06,3.06,0,0,0-.684,1.929,9.639,9.639,0,0,0,.059,2.075c.209,1.644.807,3.731,2.6,4.218a.939.939,0,0,0,1.128-.64A3.783,3.783,0,0,0,284.622,96.149Z" transform="translate(-80.539 -14.776)"/><path class="b" d="M298.6,94.636c-.009-.022-.015-.038-.023-.059s0-.073,0-.109a1.006,1.006,0,0,0-1.5-.86c-.019.01-.04.02-.059.03l-.137.022a1.983,1.983,0,0,0-.61.324,3.526,3.526,0,0,0-.948,1.064,14.666,14.666,0,0,0-.865,1.609,10.635,10.635,0,0,0-1.243,4.037,1.351,1.351,0,0,0,.984,1.292,1.422,1.422,0,0,0,1.513-.616,18.945,18.945,0,0,0,1.694-3.135c.262-.527.54-1.046.793-1.578.063-.133.13-.264.192-.4a2.647,2.647,0,0,0,.234-.979A1.7,1.7,0,0,0,298.6,94.636Z" transform="translate(-84.644 -16.1)"/><path class="a" d="M375.007,448.643c0,2.9-15.885,5.245-35.48,5.245s-35.481-2.348-35.481-5.245,15.885-5.245,35.481-5.245S375.007,445.747,375.007,448.643Z" transform="translate(-88.186 -130.601)"/><path class="a" d="M229.634,444.229c.375,4.756-29.2,10.969-66.064,13.877s-67.047,1.409-67.423-3.348,29.2-10.969,66.065-13.876S229.26,439.474,229.634,444.229Z" transform="translate(-20.154 -129.293)"/><g transform="translate(53.24 68.846)"><path class="c" d="M200.7,326.251,95.36,336.781a9.573,9.573,0,0,1-10.447-8.548L62.375,102.777A9.573,9.573,0,0,1,70.923,92.33L176.264,81.8a9.573,9.573,0,0,1,10.447,8.548L209.248,315.8A9.574,9.574,0,0,1,200.7,326.251Z" transform="translate(-62.327 -81.105)"/><path class="d" d="M210.32,325.289,104.98,335.819a9.573,9.573,0,0,1-10.447-8.548L72,101.815a9.573,9.573,0,0,1,8.549-10.447l105.34-10.53a9.574,9.574,0,0,1,10.447,8.548l22.537,225.456A9.573,9.573,0,0,1,210.32,325.289Z" transform="translate(-65.476 -80.79)"/><path class="e" d="M209.638,323.126,109.863,333.1a7.27,7.27,0,0,1-7.935-6.494L79.938,106.641A7.273,7.273,0,0,1,86.432,98.7l99.775-9.973a7.271,7.271,0,0,1,7.936,6.493L216.132,315.19A7.271,7.271,0,0,1,209.638,323.126Z" transform="translate(-68.079 -83.377)"/><path class="b" d="M208.7,322.633l-96.422,9.639a7.272,7.272,0,0,1-7.936-6.493L82.645,108.7a7.271,7.271,0,0,1,6.493-7.935l96.423-9.639A7.272,7.272,0,0,1,193.5,97.62L215.2,314.7A7.272,7.272,0,0,1,208.7,322.633Z" transform="translate(-68.964 -84.161)"/><path class="f" d="M196.481,196.068l-86.165,8.613a8.1,8.1,0,0,1-8.836-7.23L98.206,164.7a8.1,8.1,0,0,1,7.23-8.836l86.165-8.613a8.1,8.1,0,0,1,8.836,7.23l3.274,32.747A8.1,8.1,0,0,1,196.481,196.068Z" transform="translate(-74.055 -102.527)"/><path class="g" d="M192.557,192.984,106.393,201.6a8.1,8.1,0,0,1-8.836-7.23L94.283,161.62a8.1,8.1,0,0,1,7.23-8.836l86.165-8.613a8.1,8.1,0,0,1,8.837,7.231l3.273,32.746A8.1,8.1,0,0,1,192.557,192.984Z" transform="translate(-72.771 -101.517)"/><path class="h" d="M140.957,283.778l-26.377,2.637a8.1,8.1,0,0,1-8.836-7.23l-3.274-32.747a8.1,8.1,0,0,1,7.23-8.836l26.377-2.637a8.1,8.1,0,0,1,8.836,7.23l3.274,32.746A8.1,8.1,0,0,1,140.957,283.778Z" transform="translate(-75.45 -131.228)"/><path class="h" d="M177.441,416.557l-49.248,4.923a8.1,8.1,0,0,1-8.836-7.23l-2.35-23.509a8.1,8.1,0,0,1,7.23-8.837l49.249-4.923a8.1,8.1,0,0,1,8.835,7.23l2.351,23.509A8.1,8.1,0,0,1,177.441,416.557Z" transform="translate(-80.207 -177.701)"/><path class="h" d="M249.014,411.072,234.1,412.564a8.1,8.1,0,0,1-8.837-7.231l-2.35-23.509a8.1,8.1,0,0,1,7.23-8.836l14.915-1.491a8.1,8.1,0,0,1,8.835,7.23l2.351,23.509A8.1,8.1,0,0,1,249.014,411.072Z" transform="translate(-114.863 -175.906)"/><path class="h" d="M223.666,274.894l-39.04,3.9a8.1,8.1,0,0,1-8.837-7.23l-3.273-32.747a8.1,8.1,0,0,1,7.23-8.836l39.041-3.9a8.1,8.1,0,0,1,8.835,7.23l3.274,32.746A8.1,8.1,0,0,1,223.666,274.894Z" transform="translate(-98.372 -128.321)"/><path class="h" d="M207.783,345.289,121.617,353.9a8.1,8.1,0,0,1-8.836-7.23l-2.166-21.667a8.1,8.1,0,0,1,7.23-8.836l86.165-8.613a8.1,8.1,0,0,1,8.836,7.23l2.166,21.668A8.1,8.1,0,0,1,207.783,345.289Z" transform="translate(-78.116 -154.982)"/><text class="i" transform="translate(50.5 69.092) rotate(-5.709)"><tspan x="0" y="0">7.30AM</tspan></text><path class="b" d="M116.4,169.359a6.239,6.239,0,1,1-6.828-5.587A6.239,6.239,0,0,1,116.4,169.359Z" transform="translate(-72.949 -104.935)"/><path class="g" d="M115.305,172.5c-.066-.27-.385-.464-.585-.642s-.369-.339-.55-.512c-.377-.36-.759-.713-1.14-1.068-.009-.009-.023-.011-.033-.019q-.19-1.866-.387-3.733a.38.38,0,0,0-.756.076c.126,1.306.249,2.613.379,3.919a.494.494,0,0,0,.06.408.343.343,0,0,0,.176.2l.126.117a2.419,2.419,0,0,0,.339.317c.2.191.406.383.613.572.18.165.361.329.546.487.1.083.2.169.3.244a1.678,1.678,0,0,0,.225.141.568.568,0,0,0,.262.058.258.258,0,0,0,.046,0c.01,0,.019,0,.029,0v-.007a.359.359,0,0,0,.111-.02A.435.435,0,0,0,115.305,172.5Z" transform="translate(-75.534 -104.738)"/><path class="h" d="M110.805,117.575a6.716,6.716,0,1,1-7.351-6.014A6.716,6.716,0,0,1,110.805,117.575Z" transform="translate(-73.807 -90.849)"/><path class="h" d="M236.623,101.779a3.358,3.358,0,1,1-3.675-3.007A3.359,3.359,0,0,1,236.623,101.779Z" transform="translate(-117.17 -86.669)"/><path class="b" d="M234.471,190.26a3.358,3.358,0,1,1-3.675-3.007A3.358,3.358,0,0,1,234.471,190.26Z" transform="translate(-116.466 -115.623)"/><path class="h" d="M222.273,103.213a3.358,3.358,0,1,1-3.675-3.007A3.357,3.357,0,0,1,222.273,103.213Z" transform="translate(-112.475 -87.139)"/><path class="h" d="M207.923,104.648a3.358,3.358,0,1,1-3.675-3.007A3.358,3.358,0,0,1,207.923,104.648Z" transform="translate(-107.779 -87.608)"/><path class="d" d="M167.107,105.5a2,2,0,1,1-2.184-1.788A2,2,0,0,1,167.107,105.5Z" transform="translate(-95.312 -88.287)"/><path class="h" d="M137.748,134.255l-36.842,3.683a1.64,1.64,0,0,1-1.79-1.465h0a1.642,1.642,0,0,1,1.465-1.792L137.423,131a1.641,1.641,0,0,1,1.791,1.465h0A1.641,1.641,0,0,1,137.748,134.255Z" transform="translate(-74.363 -97.218)"/><path class="h" d="M150.107,141.229l-48.333,4.832a1.64,1.64,0,0,1-1.79-1.465h0a1.641,1.641,0,0,1,1.465-1.791l48.332-4.832a1.642,1.642,0,0,1,1.791,1.465h0A1.641,1.641,0,0,1,150.107,141.229Z" transform="translate(-74.647 -99.5)"/><path class="b" d="M176.795,194.241l-36.841,3.683a1.641,1.641,0,0,1-1.79-1.465h0a1.641,1.641,0,0,1,1.465-1.791l36.841-3.683a1.642,1.642,0,0,1,1.792,1.465h0A1.641,1.641,0,0,1,176.795,194.241Z" transform="translate(-87.141 -116.847)"/><path class="b" d="M189.154,201.216l-48.333,4.831a1.64,1.64,0,0,1-1.79-1.465h0a1.641,1.641,0,0,1,1.465-1.792l48.332-4.831a1.641,1.641,0,0,1,1.791,1.465h0A1.642,1.642,0,0,1,189.154,201.216Z" transform="translate(-87.425 -119.13)"/><path class="d" d="M73.6,180.063l-.844.085a1.548,1.548,0,0,1-1.689-1.382l-1.882-18.83a1.548,1.548,0,0,1,1.382-1.689l.844-.085a1.548,1.548,0,0,1,1.689,1.382l1.882,18.83A1.547,1.547,0,0,1,73.6,180.063Z" transform="translate(-64.57 -106.107)"/><path class="d" d="M77.818,222.228l-.845.084a1.548,1.548,0,0,1-1.689-1.382L73.4,202.1a1.548,1.548,0,0,1,1.382-1.689l.844-.084a1.547,1.547,0,0,1,1.689,1.382l1.882,18.83A1.547,1.547,0,0,1,77.818,222.228Z" transform="translate(-65.949 -119.904)"/></g><g transform="translate(197.984 59.765)"><path class="c" d="M334.223,440.67c-1.925.131-7.093,1.674-8.4,2.831a1.991,1.991,0,0,0,.617,3.316c1,.155,11.57,0,13.036,0s1.356-4.465.943-5.566-1.252-2.223-1.715-2.147S334.223,440.67,334.223,440.67Z" transform="translate(-293.083 -188.96)"/><path class="j" d="M336.137,426.68s1.01,7.763,1.675,9.286,5.528,1.6,6.191.581,1.927-10.091,1.429-11.233S337,424.724,336.137,426.68Z" transform="translate(-296.671 -184.256)"/><path class="c" d="M374.694,440.67c-1.925.131-7.092,1.674-8.4,2.831a1.991,1.991,0,0,0,.617,3.316c1,.155,11.57,0,13.036,0s1.356-4.465.943-5.566-1.252-2.223-1.714-2.147S374.694,440.67,374.694,440.67Z" transform="translate(-306.326 -188.96)"/><path class="j" d="M376.607,426.68s1.01,7.763,1.675,9.286,5.528,1.6,6.191.581,1.927-10.091,1.43-11.233S377.474,424.724,376.607,426.68Z" transform="translate(-309.914 -184.256)"/><path class="c" d="M373.336,248.089s2.468,29.721,3.085,57.283-4.731,59.958-5.76,61.6-10.566,1.692-11.724.206-6.376-61.4-8.433-78.47c0,0-4.371,34.2-4.782,49.211a274,274,0,0,1-2.417,28.77c-.207,1.851-10.157,2.13-11.518.205s-8.844-83.843-4.114-120.043l13.37-4.526Z" transform="translate(-293.394 -124.57)"/><path class="k" d="M316.078,177.819l-4.628,10.8s-.515,14.346,4.011,11.57,7.3-8.278,8.947-14.141,0-7.4-.823-7.816S316.078,177.819,316.078,177.819Z" transform="translate(-288.587 -103.461)"/><path class="d" d="M336.444,71.415s-12,5.474-11.641,26.823,6.448,25.182,7.7,36.86,5.552,25.363,24.9,22.627,27.4-17.7,25.791-31.021-9.134-19.343-10.03-37.042S353.459,60.831,336.444,71.415Z" transform="translate(-292.959 -67.293)"/><path class="b" d="M330.651,151.894c-8.124,1.749-13.369,11.621-14.912,16.249,0,0,3.908,6.89,10.079,8.125a43.517,43.517,0,0,0,.205,12.958c1.235,5.965-1.439,24.991-3.6,28.9,0,0,5.451,6.17,24.271,5.553s24.168-5.861,24.168-5.861-8.021-32.91-6.788-44.223c0,0,2.468,3.085,3.291,3.908s11.34-4.364,13.164-7.405c.617-1.028-7.1-11.518-9.668-14.192s-7.2-3.6-11.621-4.834-16.557,1.646-16.969,1.543S330.651,151.894,330.651,151.894Z" transform="translate(-289.996 -94.607)"/><path class="l" d="M346.337,137.73s.069,4.49-1.85,6.376-6.583,3.085-6.583,3.085,4.721,11.111,15.427,10.7c10.593-.412,13.163-11.518,13.163-11.518A54.684,54.684,0,0,1,359.5,144c-2.057-1.028-2.366-7.61-2.366-7.61Z" transform="translate(-297.249 -89.905)"/><path class="k" d="M290.6,154.773s1.44,15.427,3.7,25.3,8.587,10.336,14.038,7.867-.1-5.193-2.879-12.5-6.891-20.774-7.817-23.654,2.263-7.405-2.468-10.593c-3.741-2.521-5.143,1.645-5.451,1.851S290.6,154.773,290.6,154.773Z" transform="translate(-281.467 -91.213)"/><path class="d" d="M277.577,118.736l7.97,24.707a2.106,2.106,0,0,0,2.211,1.449l9.719-1.265a2.105,2.105,0,0,0,1.858-2.5l-6.246-25.108a2.106,2.106,0,0,0-2.369-1.677l-11.442,1.666A2.105,2.105,0,0,0,277.577,118.736Z" transform="translate(-277.475 -82.681)"/><path class="c" d="M305.817,141.128l-6.246-25.108a2.1,2.1,0,0,0-2.287-1.681,2.133,2.133,0,0,1,1.392,1.6l6.356,25.546a2.131,2.131,0,0,1-.776,2.084A2.1,2.1,0,0,0,305.817,141.128Z" transform="translate(-283.957 -82.684)"/><path class="j" d="M289.3,154.713c-3.661.366-6.479-7.405-5.862-10.49s4.051-5.569,7.4-6.017c2.314-.309,2.006,1.08,1.7,1.851s-2.777,1.851-3.548,4.165c0,0,2.468-2.006,3.857-2.16s1.7,1.543.926,2.468-2.932,3.856-3.24,5.4a8.713,8.713,0,0,1,3.548-1.851c1.543-.153,1.389.926.771,1.851S292.39,154.4,289.3,154.713Z" transform="translate(-279.4 -90.483)"/><path class="m" d="M348.605,139.909" transform="translate(-300.751 -91.055)"/><path class="k" d="M401.559,178.844c-1.235-1.029-9.462,6.685-9.462,6.685s4.32,7.816,5.039,9.667-2.982,25.2-3.7,26.328c-1.363.875-4.6,1.569-4.989,2.263-.353.636.529,1.452,2.1,1.293a16.722,16.722,0,0,0-2.663,3.747c-.206,1.131,1.029,1.029,1.029,1.029s-.411,1.748.308,2.262a1.818,1.818,0,0,0,1.646.1,2.961,2.961,0,0,0,.926,1.337,1.3,1.3,0,0,0,1.234.1,2.569,2.569,0,0,0,1.132.669c.72.206,2.674-1.9,3.907-4.988a35.914,35.914,0,0,0,1.646-5.348c.411-1.337,8.124-21.7,8.33-28.488S402.793,179.873,401.559,178.844Z" transform="translate(-313.595 -103.765)"/><path class="b" d="M391.63,184.61c.823.822,11.34-4.364,13.164-7.405.248-.414-.856-2.365-2.431-4.721L389.886,182.6C390.551,183.4,391.258,184.238,391.63,184.61Z" transform="translate(-314.259 -101.715)"/><path class="n" d="M364.157,144.322c-.257-.108-.5-.215-.7-.318-2.057-1.028-2.366-7.61-2.366-7.61l-10.8,1.337a15.673,15.673,0,0,1-.311,3.05,13.568,13.568,0,0,0,5.682,3.74A12.684,12.684,0,0,0,364.157,144.322Z" transform="translate(-301.199 -89.905)"/><path class="k" d="M362.955,106.526s3.284-1.642,4.106,2.464-1.643,5.474-3.695,5.885c0,0-2.326,13.959-14.37,13s-15.328-15.876-15.054-23.4c0,0,4.516-5.2,7.937-7.254,0,0,6.706,6.3,9.033,6.843s2.6-2.464,2.6-2.464S358.575,105.842,362.955,106.526Z" transform="translate(-295.947 -77.086)"/><path class="n" d="M379,114.737a.623.623,0,0,0-.745.1c-.034.034-.064.071-.095.106a2.256,2.256,0,0,1,.152-.69,1.352,1.352,0,0,1,.416-.557,2.124,2.124,0,0,1,.623-.249.288.288,0,0,0,.125-.474c-.548-.624-1.391,0-1.757.5a3,3,0,0,0-.5,1.93,3.456,3.456,0,0,0,.2.994,2.32,2.32,0,0,0,.514.893.928.928,0,0,0,1.124.032,1.427,1.427,0,0,0,.548-.75A1.546,1.546,0,0,0,379,114.737Z" transform="translate(-310.112 -82.153)"/><path class="n" d="M294.048,141.626a2.474,2.474,0,0,0-1.218.626,8.659,8.659,0,0,0-.957.882,10.029,10.029,0,0,0-1.581,2.2c-.192.369-.5.914-.348,1.347.176.511.671-.069.805-.284.243-.389.427-.813.667-1.2a9.372,9.372,0,0,1,.728-1.033,11.166,11.166,0,0,1,1.049-1.114,4.757,4.757,0,0,0,1.06-1.064A.239.239,0,0,0,294.048,141.626Z" transform="translate(-281.542 -91.617)"/><path class="n" d="M297.134,147.817c-.059-.15-.062-.268-.273-.294-.281-.033-.521.221-.678.416a16.374,16.374,0,0,0-1.253,1.905q-.592.99-1.113,2.018c-.17.334-.343.668-.494,1.011a1.728,1.728,0,0,0-.248,1.062.207.207,0,0,0,.3.122,1.546,1.546,0,0,0,.548-.7c.147-.282.284-.57.427-.854.305-.6.626-1.2.957-1.784.321-.571.659-1.133,1.006-1.689a6.358,6.358,0,0,1,.743-1.154C297.1,147.89,297.153,147.864,297.134,147.817Z" transform="translate(-282.572 -93.546)"/><path class="n" d="M297.213,159a8.114,8.114,0,0,1-.528.782,3.8,3.8,0,0,1-.261.3,4.007,4.007,0,0,1-.35.318.371.371,0,0,1-.036.028l-.1.072c-.061.042-.124.085-.188.125-.133.085-.272.158-.41.233a4.3,4.3,0,0,0-.421.246c-.051.036-.114.063-.17.1a.8.8,0,0,0-.159.17.116.116,0,0,0,.023.181.758.758,0,0,0,.227.1,2.215,2.215,0,0,0,.25,0,1.335,1.335,0,0,0,.541-.106,3.435,3.435,0,0,0,.955-.579,3.192,3.192,0,0,0,1.139-1.754A.281.281,0,0,0,297.213,159Z" transform="translate(-283.064 -97.258)"/><path class="c" d="M281.931,120.417a.622.622,0,0,0-.253-.451c-.538-.409-1.392.1-1.082.777a.745.745,0,0,0,1.031.308A.717.717,0,0,0,281.931,120.417Z" transform="translate(-278.475 -84.481)"/><path class="c" d="M284.683,121.563a.619.619,0,0,0-.253-.45c-.538-.41-1.391.1-1.082.777a.744.744,0,0,0,1.031.308A.72.72,0,0,0,284.683,121.563Z" transform="translate(-279.375 -84.857)"/><path class="c" d="M282.792,123.513a.628.628,0,0,0-.254-.451c-.539-.41-1.392.1-1.083.777a.746.746,0,0,0,1.033.308A.724.724,0,0,0,282.792,123.513Z" transform="translate(-278.756 -85.494)"/><path class="o" d="M327.018,178.96a.062.062,0,0,0-.089-.036,2.8,2.8,0,0,0-.781,1.452c-.213.642-.381,1.3-.538,1.961-.143.6-.26,1.2-.361,1.812-.1-.061-.208-.116-.3-.167-.488-.258-.97-.529-1.442-.817a20,20,0,0,1-2.756-1.994,30.9,30.9,0,0,1-2.394-2.356c-.394-.427-.774-.867-1.152-1.308a5.864,5.864,0,0,0-1.185-1.237.242.242,0,0,0-.352.27,4.475,4.475,0,0,0,.816,1.424c.3.418.618.824.939,1.226a24.028,24.028,0,0,0,2.213,2.451,19.364,19.364,0,0,0,2.469,1.988c.437.295.885.574,1.34.84.217.126.436.25.655.371.133.073.266.144.4.215.054.028.278.116.289.131a.6.6,0,0,0,.284.21c-.042.33-.079.66-.111.99a30.945,30.945,0,0,0-.124,4.065,17.36,17.36,0,0,0,.2,1.975,14.231,14.231,0,0,0,.518,2.025.116.116,0,0,0,.227-.03c-.013-.675.03-1.345,0-2.018-.022-.627-.026-1.247-.049-1.874a34.283,34.283,0,0,1,.094-3.987,35.211,35.211,0,0,1,.552-3.913c.124-.641.277-1.274.43-1.909A3.561,3.561,0,0,0,327.018,178.96Z" transform="translate(-289.969 -102.942)"/><path class="o" d="M387.966,182.935a.216.216,0,0,0-.39-.051,5.326,5.326,0,0,0-.332,2.1c-.045.774-.065,1.549-.075,2.325s-.019,1.553.028,2.326a7.322,7.322,0,0,0,.367,2.194.141.141,0,0,0,.268,0,9,9,0,0,0,.155-2.194c0-.748-.026-1.5-.024-2.243s.019-1.495.048-2.242A6.521,6.521,0,0,0,387.966,182.935Z" transform="translate(-313.368 -105.084)"/><path class="o" d="M367.1,253.755c-1.492.106-2.982.449-4.464.655q-2.194.3-4.4.515-4.453.432-8.932.505c-5.366.088-10.9-.009-16.131-1.35a31.405,31.405,0,0,1-4.027-1.3c-.647-.263-1.282-.538-1.9-.858-.661-.342-1.3-.727-1.982-1.021a.248.248,0,0,0-.3.388,11.273,11.273,0,0,0,3.165,2.134,21.751,21.751,0,0,0,3.591,1.471,39.223,39.223,0,0,0,7.686,1.439,97.383,97.383,0,0,0,17.6-.048q2.576-.216,5.141-.552,1.263-.165,2.524-.357a20.948,20.948,0,0,0,2.579-.476C367.867,254.721,367.777,253.706,367.1,253.755Z" transform="translate(-292.991 -127.366)"/><path class="n" d="M391.435,249.837c-.009-.019-.011-.021-.014-.022a.273.273,0,0,0-.006-.033.109.109,0,0,0-.159-.065c-.016.011-.061.044-.015.022-.049.024-.1.015-.149.052a.734.734,0,0,0-.157.194,3.88,3.88,0,0,0-.242.474c-.152.333-.318.661-.489.985s-.341.626-.522.932c-.09.153-.176.309-.252.47a.8.8,0,0,0-.074.219.8.8,0,0,1-.038.223.063.063,0,0,0,.1.076,1.016,1.016,0,0,1,.217-.115.73.73,0,0,0,.179-.146,3.959,3.959,0,0,0,.358-.441c.211-.3.406-.61.588-.929s.335-.629.483-.952a3.068,3.068,0,0,0,.207-.544.918.918,0,0,0,.038-.252A.375.375,0,0,0,391.435,249.837Z" transform="translate(-314.071 -126.983)"/><path class="n" d="M394.661,252.662a.21.21,0,0,0-.255-.145,1.081,1.081,0,0,0-.384.338,3.263,3.263,0,0,0-.327.51q-.292.491-.606.969c-.2.309-.414.612-.611.924a4.059,4.059,0,0,0-.3.505c-.033.074-.065.149-.1.224s-.024.164-.054.235.067.135.124.095.133-.048.194-.091.149-.11.22-.167a3.075,3.075,0,0,0,.377-.4,10.046,10.046,0,0,0,.709-.957c.213-.316.418-.637.615-.962a3.78,3.78,0,0,0,.274-.5c.039-.093.053-.189.084-.284A.5.5,0,0,0,394.661,252.662Z" transform="translate(-314.96 -127.901)"/><path class="n" d="M398.336,253.211a.093.093,0,0,0-.172-.047c-.451.77-.727,1.635-1.161,2.417a11.787,11.787,0,0,1-.7,1.113c-.13.182-.283.353-.395.545a1.354,1.354,0,0,0-.153.3.576.576,0,0,1-.069.213c-.02.028.019.067.046.046a.6.6,0,0,1,.209-.073,1.009,1.009,0,0,0,.268-.168,3.054,3.054,0,0,0,.489-.506,8.335,8.335,0,0,0,.815-1.169A4.919,4.919,0,0,0,398.336,253.211Z" transform="translate(-316.154 -128.101)"/><path class="p" d="M366.354,202.788a1.65,1.65,0,0,0-1.48-1.48c-1.232-.165-2.3.98-3.4,1.41a8.732,8.732,0,0,1-6.167.107,28.156,28.156,0,0,0-3.7-1.431,8.628,8.628,0,0,0-4.1.2c-2.521.7-4.769,2.155-7.474,1.87a10.164,10.164,0,0,1-3.233-.857,13.043,13.043,0,0,1-1.557-.894c-.464-.3-.812-.7-1.4-.706a.384.384,0,0,0-.363.276c-.262.881.634,1.917,1.184,2.528a9.231,9.231,0,0,0,2.633,2.021,10.019,10.019,0,0,0,6.9.7c2.2-.525,4.541-2.17,6.861-1.506,1.257.359,2.385,1.07,3.631,1.468a11.886,11.886,0,0,0,3.513.538,12.142,12.142,0,0,0,6.964-2.1A2.374,2.374,0,0,0,366.354,202.788Z" transform="translate(-295.789 -111.05)"/><path class="q" d="M362.324,303.555q-.116-.993-.222-1.989c-.143-1.354-.279-2.71-.4-4.068-.229-2.657-.365-5.346-.776-7.982-.052-.335-.534-.222-.557.075a51.2,51.2,0,0,0,.2,8.073c.106,1.329.224,2.659.365,3.985q.1,1,.223,1.988a3.373,3.373,0,0,0,.491,1.863.412.412,0,0,0,.644-.083A3.35,3.35,0,0,0,362.324,303.555Z" transform="translate(-304.572 -139.945)"/><path class="q" d="M336.107,443.33c-.614-.344-1.249-.665-1.878-.982-.063-.032-.127-.061-.19-.091.028-.082.055-.169.085-.24.068-.163.129-.336.183-.5a.977.977,0,0,0,.089-.466.238.238,0,0,0-.231-.176.807.807,0,0,0-.427.229,2.561,2.561,0,0,0-.348.351,2.388,2.388,0,0,0-.254.376,2.2,2.2,0,0,0-.741-.235c-.082-.168-.248-.158-.372-.037a.321.321,0,0,0-.124.334c0,.38.392.624.684.817.043.029.089.054.133.081a4.191,4.191,0,0,0-.147.6,3.115,3.115,0,0,0-.05.585,2.973,2.973,0,0,0,.021.337.377.377,0,0,0-.04.078.447.447,0,0,0,.306.54.629.629,0,0,0,.706-.373l-.015.015a.906.906,0,0,0,.153-.441c0-.033.007-.066.011-.1-.015.12.015-.108.013-.095.013-.093.02-.186.031-.279,0-.038.01-.076.014-.114,0-.005,0-.039.007-.061s.01-.063.011-.07,0-.027.007-.04c.455.254.914.505,1.378.745a.9.9,0,0,0,.077.083.555.555,0,0,0,.47.259.847.847,0,0,0,.439-.133A.586.586,0,0,0,336.107,443.33Z" transform="translate(-295.283 -189.539)"/><path class="q" d="M375.785,442.325a3.15,3.15,0,0,0-.434-.108q-.19-.047-.378-.1l-.006,0a.654.654,0,0,0,.048-.115c0-.005,0,0,0,0l0-.005.054-.117c.007-.016.016-.032.023-.05a1.136,1.136,0,0,0,.058-.215c-.02.085.009,0,.019-.034a.857.857,0,0,0,.036-.174c0-.036.006-.073.007-.11a.289.289,0,0,0,0-.049h0a.276.276,0,0,0-.112-.288.108.108,0,0,0-.127-.042.261.261,0,0,0-.15.03.277.277,0,0,0-.069.06l-.005.005c-.015.011-.057.047-.053.044l-.031.027c-.03.025.011-.007.015-.009-.03.026-.067.047-.1.075a1.081,1.081,0,0,0-.073.084c-.011.012-.023.024-.033.038.009-.011.094-.07-.01.01a1.529,1.529,0,0,0-.227.283c-.032.041.01-.017.013-.02a.521.521,0,0,0-.061.073c-.036.045-.068.091-.1.138l-.046.063c-.2-.073-.4-.147-.6-.224-.252-.1-.453-.165-.719-.278a.42.42,0,0,0-.532.106.41.41,0,0,0,.032.542,6.757,6.757,0,0,0,.769.553c.092.055.188.1.283.151-.054.058-.11.114-.162.173-.2.231-.454.529-.359.854a.5.5,0,0,0,.464.353c.266.024.463-.2.639-.373a4.5,4.5,0,0,0,.377-.438c.033-.041.065-.084.1-.125.11.038.217.085.329.119.139.041.286.086.435.126a.471.471,0,0,0,.042.039.516.516,0,0,0,.249.172.606.606,0,0,0,.45-.064.711.711,0,0,0,.336-.474A.588.588,0,0,0,375.785,442.325Z" transform="translate(-308.442 -189.55)"/><path class="r" d="M371.941,103.4c-.342.031-.692.031-1.031.061a4.408,4.408,0,0,0-1.044.291c-.7.244-1.4.48-2.107.692a30.54,30.54,0,0,1-4.266,1.01,8.756,8.756,0,0,1-4.228-.393,19.659,19.659,0,0,1-3.7-1.907q-1.041-.633-2.053-1.318c-.325-.221-.647-.447-.971-.669a2.344,2.344,0,0,0-.932-.478.584.584,0,0,0-.764.661,1.226,1.226,0,0,1-.149,1.1,1.3,1.3,0,0,1-1.3.314,4.284,4.284,0,0,1-1.529-.815c-.534-.389-1.059-.786-1.588-1.18-1.008-.75-2.038-1.471-3.045-2.223-.514-.383-1.022-.777-1.513-1.19a6.257,6.257,0,0,0-1.409-1.134h0a.529.529,0,0,0-.521-.233,2.74,2.74,0,0,0-.946.54q-.4.275-.8.562-.841.611-1.646,1.268a34.935,34.935,0,0,0-5.747,6c-.417.555-.805,1.13-1.178,1.717a8.113,8.113,0,0,0-.941,1.778.251.251,0,0,0,.417.243,14.311,14.311,0,0,0,1.221-1.614c.387-.533.79-1.054,1.2-1.572a37.361,37.361,0,0,1,2.707-3.08,35.851,35.851,0,0,1,2.986-2.713c.525-.426,1.059-.839,1.607-1.234q.395-.286.8-.558a5.987,5.987,0,0,0,.612-.431,5.124,5.124,0,0,0,.673.657c.267.248.541.489.814.73.546.482,1.1.96,1.66,1.423,1.2.984,2.433,1.918,3.663,2.859,1.046.8,2.321,1.722,3.715,1.252a2.187,2.187,0,0,0,1.444-1.884c.253.193.52.367.735.529q.912.689,1.859,1.337a20.782,20.782,0,0,0,3.844,2.141,9.446,9.446,0,0,0,4.268.723,24.114,24.114,0,0,0,4.616-.913q1.261-.346,2.5-.772a7.9,7.9,0,0,0,1.162-.468,6.625,6.625,0,0,0,1.026-.813A.171.171,0,0,0,371.941,103.4Z" transform="translate(-294.181 -76.678)"/><path class="r" d="M332.6,137.056c-.215-.736-.454-1.465-.674-2.2q-.649-2.166-1.161-4.37a83.006,83.006,0,0,1-1.56-8.859c-.1-.842-.19-1.686-.281-2.53a5.7,5.7,0,0,0-.428-2.323.051.051,0,0,0-.087,0,4.218,4.218,0,0,0-.205,2.006c.017.766.059,1.53.112,2.294.1,1.49.281,2.976.49,4.456a65.327,65.327,0,0,0,1.944,8.909c.241.836.476,1.683.779,2.5a5.116,5.116,0,0,0,1.149,2.125c.061.052.182.043.2-.052A4.7,4.7,0,0,0,332.6,137.056Z" transform="translate(-294.067 -83.477)"/><path class="r" d="M337.665,138.36c-.206-.589-.431-1.171-.629-1.763-.408-1.208-.778-2.427-1.089-3.663q-.455-1.814-.8-3.654c-.112-.611-.211-1.225-.309-1.839a8.776,8.776,0,0,0-.4-1.961.1.1,0,0,0-.182,0,6.015,6.015,0,0,0-.059,1.89c.037.622.1,1.239.176,1.857a36.209,36.209,0,0,0,.688,3.868c.3,1.265.65,2.52,1.072,3.749.206.6.416,1.208.666,1.793a7.71,7.71,0,0,0,1.048,1.715.14.14,0,0,0,.255-.107A11.668,11.668,0,0,0,337.665,138.36Z" transform="translate(-296.024 -86.312)"/><path class="r" d="M343.362,142.547a2,2,0,0,0-.215-.8c-.117-.266-.251-.525-.381-.785s-.267-.488-.381-.742c-.046-.1-.2-.524-.375-.445-.3.135-.261.541-.192.8a5.843,5.843,0,0,0,.36.9,3.172,3.172,0,0,0,1.06,1.519.093.093,0,0,0,.139-.079A1.1,1.1,0,0,0,343.362,142.547Z" transform="translate(-298.514 -91.008)"/><path class="r" d="M402.139,139.369a57.014,57.014,0,0,0-2.48-6.418c-.936-2.147-1.882-4.286-2.674-6.492q-1.206-3.352-2.08-6.806-.486-1.913-.866-3.853c-.132-.671-.26-1.342-.375-2.016a14.271,14.271,0,0,0-.38-2.007.138.138,0,0,0-.269.037,16.511,16.511,0,0,0,.31,3.529c.153,1.152.351,2.3.577,3.438a63.332,63.332,0,0,0,1.732,6.739c.7,2.208,1.547,4.362,2.45,6.494.889,2.1,1.827,4.179,2.56,6.342a30.459,30.459,0,0,1,1.006,3.682,11.65,11.65,0,0,1,.308,3.719c-.023.186.254.237.338.092C403.44,143.869,402.751,141.414,402.139,139.369Z" transform="translate(-315.276 -81.818)"/><path class="r" d="M392.257,138.863a23.341,23.341,0,0,0-.637-2.431c-.5-1.661-1.067-3.3-1.631-4.937a80.143,80.143,0,0,1-2.937-10.155c-.4-1.987-.731-3.981-.933-6-.035-.361-.6-.372-.573,0a58.876,58.876,0,0,0,1.629,10.529c.85,3.376,2.112,6.621,3.152,9.939q.447,1.424.833,2.867c.258.961.667,1.873.94,2.83a.172.172,0,0,0,.336-.045A18.831,18.831,0,0,0,392.257,138.863Z" transform="translate(-312.839 -82.926)"/><path class="r" d="M382.974,139.741c-.2-.644-.426-1.28-.632-1.921q-.611-1.886-1.166-3.79t-1.065-3.818c-.165-.625-.327-1.251-.493-1.877a3.152,3.152,0,0,0-.694-1.675.046.046,0,0,0-.071.009,2.8,2.8,0,0,0,.042,1.7c.115.638.25,1.272.391,1.9q.442,1.975.969,3.929t1.145,3.879c.2.616.39,1.235.61,1.843.186.513.41,1.267.928,1.523a.146.146,0,0,0,.2-.052A2.486,2.486,0,0,0,382.974,139.741Z" transform="translate(-310.608 -86.716)"/><path class="r" d="M376.261,141.331a14.248,14.248,0,0,0-.662-1.6c-.229-.477-.478-.946-.693-1.43-.112-.25-.2-.507-.295-.764a1.883,1.883,0,0,0-.283-.623.08.08,0,0,0-.124.015,1.933,1.933,0,0,0,.122,1.349,14.292,14.292,0,0,0,.607,1.5q.351.775.642,1.576c.1.265.184.535.293.8.085.207.178.5.4.592a.1.1,0,0,0,.12-.015C376.657,142.38,376.383,141.7,376.261,141.331Z" transform="translate(-309.1 -90.068)"/><path class="r" d="M338.652,90.843a7.751,7.751,0,0,0-3.025,1.6,27.732,27.732,0,0,0-2.652,2.143,26.81,26.81,0,0,0-4.451,5.279c-.359.558-.7,1.128-1,1.72a5.028,5.028,0,0,0-.645,1.686c-.011.1.132.149.2.082a6.239,6.239,0,0,0,.856-1.3c.291-.5.589-.989.9-1.473a27.9,27.9,0,0,1,1.992-2.709,26.781,26.781,0,0,1,4.9-4.606,20.246,20.246,0,0,0,3.068-2.18A.149.149,0,0,0,338.652,90.843Z" transform="translate(-293.641 -74.998)"/><path class="r" d="M337.605,84.1a12.828,12.828,0,0,0-3.2,2.052,29.032,29.032,0,0,0-2.925,2.785A27.244,27.244,0,0,0,329.041,92c-.37.547-.733,1.1-1.05,1.685a6.878,6.878,0,0,0-.814,1.777.108.108,0,0,0,.18.1,10.8,10.8,0,0,0,1.015-1.5c.353-.534.705-1.069,1.079-1.588a32.152,32.152,0,0,1,2.494-3.075,29.956,29.956,0,0,1,2.779-2.641c.992-.829,2.047-1.579,3.005-2.446C337.821,84.232,337.725,84.047,337.605,84.1Z" transform="translate(-293.738 -72.789)"/><path class="r" d="M356.917,96.517c-.449-.363-.882-.725-1.366-1.043s-1-.6-1.491-.906a22.7,22.7,0,0,1-2.914-2.084A17.436,17.436,0,0,1,348.9,90.2a16.177,16.177,0,0,1-1.015-1.4,5.529,5.529,0,0,0-.873-1.265.035.035,0,0,0-.059.024,3.1,3.1,0,0,0,.46,1.436,10.831,10.831,0,0,0,.9,1.483,15.715,15.715,0,0,0,2.243,2.5,23.713,23.713,0,0,0,2.885,2.2,17,17,0,0,0,1.564.932,9.772,9.772,0,0,0,1.772.649C356.906,96.791,357.03,96.607,356.917,96.517Z" transform="translate(-300.21 -73.914)"/><path class="r" d="M375.879,93.985c-.443-.126-.852-.326-1.308-.412-.5-.095-1.005-.159-1.506-.243-.961-.159-1.923-.311-2.876-.516a42.735,42.735,0,0,1-5.48-1.59,47.2,47.2,0,0,1-10.337-5.29q-1.339-.9-2.629-1.87c-.462-.349-.913-.712-1.37-1.066a6.968,6.968,0,0,0-1.311-.924c-.145-.067-.332.076-.233.234a9.424,9.424,0,0,0,2.153,2.053q1.123.92,2.294,1.782a48.737,48.737,0,0,0,5.022,3.226,42.793,42.793,0,0,0,11.058,4.377,30.181,30.181,0,0,0,3.288.62c.529.063,1.058.117,1.591.135a8.183,8.183,0,0,0,1.644-.212C376.039,94.263,376.018,94.025,375.879,93.985Z" transform="translate(-300.815 -72.124)"/><path class="r" d="M378.992,84.72c-.878-.115-1.757-.243-2.641-.292s-1.755-.085-2.63-.184a35.572,35.572,0,0,1-5.137-.99c-1.695-.449-3.36-1-5.006-1.609a34.616,34.616,0,0,1-4.85-2.023,16.774,16.774,0,0,1-2.251-1.611,6.669,6.669,0,0,0-2.2-1.366.037.037,0,0,0-.036.061c.559.616,1.2,1.161,1.81,1.733a14.649,14.649,0,0,0,1.928,1.572,26,26,0,0,0,4.691,2.288,42.827,42.827,0,0,0,10.436,2.949,24.124,24.124,0,0,0,2.936.248,9.694,9.694,0,0,0,2.991-.488A.148.148,0,0,0,378.992,84.72Z" transform="translate(-302.591 -70.353)"/><path class="r" d="M372.98,77.541a24.307,24.307,0,0,0-2.789-1.027c-.95-.267-1.9-.54-2.835-.848-.914-.3-1.823-.634-2.709-1.01a6.279,6.279,0,0,1-1.079-.568c-.312-.212-.543-.529-.858-.731a.04.04,0,0,0-.058.023c-.147.719.735,1.3,1.259,1.6a18.657,18.657,0,0,0,2.807,1.249c1,.371,2.015.685,3.04.973a18.469,18.469,0,0,0,3.2.532C373.076,77.749,373.074,77.58,372.98,77.541Z" transform="translate(-305.342 -69.275)"/><path class="d" d="M342.674,108.926a2.823,2.823,0,0,0-.628-.314,2.717,2.717,0,0,0-1.31-.134,1.6,1.6,0,0,0-.336.081c-.054.02-.109.044-.163.066-.009,0-.176.071-.075.031a2.642,2.642,0,0,0-.58.294c-.328.24-.8.678-.69,1.13a.336.336,0,0,0,.321.244c.328-.012.524-.265.786-.406.068-.037.137-.071.205-.106.03-.016.061-.03.091-.046l.017-.007c.063-.023.125-.044.189-.063l.024-.007.1-.009c.143-.008.288-.018.431-.013l.108.005.052.006.079.015c.035.007.07.015.106.025.069.017.139.04.207.064l.079.029.022.009c.072.038.145.075.213.118l.02.013a.582.582,0,0,0,.425.276.623.623,0,0,0,.6-.288A.735.735,0,0,0,342.674,108.926Z" transform="translate(-297.567 -80.761)"/><path class="d" d="M359.4,116.862a.988.988,0,0,0,1.144.466,1.355,1.355,0,0,0,.782-.9,3.584,3.584,0,0,0,.168-.986,2.884,2.884,0,0,0-.106-.962,1.348,1.348,0,0,0-.6-.8,1.064,1.064,0,0,0-1.132.087,1.425,1.425,0,0,0-.554,1.087c0,.03,0,.061,0,.091,0,.007-.006.011-.008.017A2.393,2.393,0,0,0,359.4,116.862Z" transform="translate(-304.158 -82.433)"/><path class="d" d="M357.678,109.941a.621.621,0,0,0,.6.288.582.582,0,0,0,.425-.276l.021-.013c.069-.043.141-.08.213-.118a.086.086,0,0,1,.022-.009c.026-.01.052-.02.079-.029.068-.024.137-.046.207-.064.034-.009.07-.018.1-.025l.079-.015.052-.006.108-.005c.143,0,.288,0,.431.013l.1.009.024.007q.1.028.19.063l.017.007.092.046c.068.034.137.069.2.106.262.141.458.394.786.406a.336.336,0,0,0,.321-.244c.112-.451-.361-.89-.69-1.13a2.656,2.656,0,0,0-.58-.294c.1.04-.066-.027-.075-.031-.054-.022-.108-.046-.163-.066a1.6,1.6,0,0,0-.336-.081,2.722,2.722,0,0,0-1.311.134,2.837,2.837,0,0,0-.628.314A.734.734,0,0,0,357.678,109.941Z" transform="translate(-303.682 -80.761)"/><path class="d" d="M340.72,117.359a.987.987,0,0,0,1.144.465,1.356,1.356,0,0,0,.782-.9,3.57,3.57,0,0,0,.168-.986,2.9,2.9,0,0,0-.106-.963,1.345,1.345,0,0,0-.6-.795,1.065,1.065,0,0,0-1.132.087,1.428,1.428,0,0,0-.554,1.086c0,.03,0,.061,0,.092,0,.006-.007.01-.009.016A2.392,2.392,0,0,0,340.72,117.359Z" transform="translate(-298.045 -82.596)"/><path class="n" d="M352.86,123.366l-.016-.04a.771.771,0,0,0-.628-.542.751.751,0,0,0-.26.015.9.9,0,0,0-.246.032c-.091.029-.182.063-.272.092a3.611,3.611,0,0,1-.525.123c-.087.009-.172.019-.259.031l.2-.027a1.8,1.8,0,0,1-.324.015l-.018,0c-.045-.009-.089-.017-.133-.03l-.059-.018c-.028-.013-.056-.026-.082-.042l-.059-.034a.436.436,0,0,0-.213-.068l-.028,0c.094.011-.038-.011-.066-.02a.449.449,0,0,0-.566.43.859.859,0,0,0,.1.475,1.451,1.451,0,0,0,.274.3,2.3,2.3,0,0,0,.792.433,2.179,2.179,0,0,0,.941.058c.19-.024.379-.051.566-.09.069-.014.143-.026.211-.046a1.237,1.237,0,0,0,.466-.289A.758.758,0,0,0,352.86,123.366Z" transform="translate(-300.98 -85.45)"/><path class="b" d="M353.065,127.07c-.75-.109-1.358.354-2.073.409-.466.036-.883-.425-1.326-.082a.75.75,0,0,0-.189.949,2.06,2.06,0,0,0,1.9,1.111,3.451,3.451,0,0,0,1.285-.336,1.6,1.6,0,0,0,.658-.463,1.471,1.471,0,0,0,.344-.844A.66.66,0,0,0,353.065,127.07Z" transform="translate(-301.007 -86.848)"/><path class="s" d="M366.052,121.231c-.74-1.459-4.251-1.311-4.678.336a1.532,1.532,0,0,0,.775,1.694C363.533,124.05,367.224,123.543,366.052,121.231Z" transform="translate(-304.914 -84.615)"/><path class="s" d="M340.259,121.692c-.627-1.237-3.6-1.11-3.963.285a1.3,1.3,0,0,0,.657,1.435C338.126,124.08,341.253,123.651,340.259,121.692Z" transform="translate(-296.711 -84.816)"/></g></g></g></svg>