<svg xmlns="http://www.w3.org/2000/svg" width="19.426" height="28.782" viewBox="0 0 19.426 28.782"><defs><style>.a{fill:#aaa;}</style></defs><path class="a" d="M97.459,25.47V28.3a.48.48,0,1,1-.959,0V25.47a3.989,3.989,0,0,0-3.991-3.991,2.945,2.945,0,0,1-2.534-1.423.48.48,0,1,1,.819-.5,1.993,1.993,0,0,0,1.714.962,4.948,4.948,0,0,1,4.951,4.951Zm-8.37-4.808a.48.48,0,0,1-.367.571,4.591,4.591,0,0,1-3.568-.7,2.909,2.909,0,0,1-2.17.944,3.989,3.989,0,0,0-3.991,3.991V28.3a.48.48,0,1,1-.959,0V25.47a4.948,4.948,0,0,1,4.951-4.951,2,2,0,0,0,2-2v-.126a6.426,6.426,0,0,1-3.653-5.554,1.957,1.957,0,0,1-1.5-1.9V8.457a8.787,8.787,0,0,1,2.377-6.408C84.953-.6,89.355-.429,92.591,1.129a.481.481,0,0,1,.1.8,6.474,6.474,0,0,1,3.962,2.85.53.53,0,0,1,.11.377.485.485,0,0,1-.138.3,3.132,3.132,0,0,0-.906,2.212v3.272a.48.48,0,0,1-.959,0V7.672a4.083,4.083,0,0,1,.932-2.607A5.541,5.541,0,0,0,91.716,2.73l-.843-.09a.48.48,0,0,1-.132-.92l.383-.158C86.131-.18,80.791,1.754,80.791,8.452v2.492a.99.99,0,0,0,.54.878V8.711a3.361,3.361,0,0,1,3.358-3.358H90.8a3.361,3.361,0,0,1,3.358,3.357v3.927a6.424,6.424,0,0,1-8.224,6.119,2.933,2.933,0,0,1-.251.979,3.632,3.632,0,0,0,2.832.558A.48.48,0,0,1,89.088,20.662Zm-1.343-2.6A5.462,5.462,0,0,0,93.2,12.6V8.711a2.4,2.4,0,0,0-2.4-2.4H84.688a2.4,2.4,0,0,0-2.4,2.4V12.6A5.462,5.462,0,0,0,87.746,18.058ZM92.6,26.324H91.163a.48.48,0,1,0,0,.959H92.6a.48.48,0,1,0,0-.959Z" transform="translate(-78.033 0)"/></svg>