<svg xmlns="http://www.w3.org/2000/svg" width="30" height="27.739" viewBox="0 0 30 27.739"><defs><style>.a{fill:#aaa;}</style></defs><g transform="translate(0 -19.288)"><path class="a" d="M62.46,63.483a1.74,1.74,0,0,0-1.773-1.7H59.4a.44.44,0,0,0-.44.44v4.855a.44.44,0,0,0,.879,0V65.259l2.45,2.784-1.368,1.2a.439.439,0,0,0,.581.66l1.368-1.2,1.2,1.368a.439.439,0,1,0,.66-.581l-1.2-1.368,1.368-1.2a.439.439,0,0,0-.581-.66l-1.368,1.2-2.018-2.293A1.729,1.729,0,0,0,62.46,63.483Zm-1.773.822-.844,0c0-.834,0-.609-.005-1.648h.849a.825.825,0,1,1,0,1.645Z" transform="translate(-55.502 -40.004)"/><path class="a" d="M75.152,233.534H59.4a.44.44,0,1,0,0,.879H75.152a.44.44,0,0,0,0-.879Z" transform="translate(-55.503 -201.693)"/><path class="a" d="M75.592,279.977a.44.44,0,0,0-.44-.439H59.4a.439.439,0,1,0,0,.879H75.152a.439.439,0,0,0,.439-.44Z" transform="translate(-55.503 -245.001)"/><path class="a" d="M59.4,325.543a.439.439,0,1,0,0,.879h5.194a.439.439,0,1,0,0-.879Z" transform="translate(-55.503 -288.311)"/><path class="a" d="M.439,33.16a.44.44,0,0,0,.44-.44V22.235a2.07,2.07,0,0,1,2.068-2.068H18.182v4.175a2.784,2.784,0,0,0,2.781,2.781h4.175v2.1a.44.44,0,1,0,.879,0V26.684a.444.444,0,0,0-.129-.311h0l-6.957-6.957a.457.457,0,0,0-.311-.128H2.947A2.95,2.95,0,0,0,0,22.235V32.72a.439.439,0,0,0,.44.439Zm20.523-6.915a1.9,1.9,0,0,1-1.9-1.9V20.788l5.456,5.456Z" transform="translate(0)"/><path class="a" d="M2.947,222.194h13.57a4.469,4.469,0,0,0,7.49,4.269l4.686-4.685h0a4.471,4.471,0,0,0-2.675-7.605v-2.453a.44.44,0,1,0-.879,0v2.444h-.009a4.471,4.471,0,0,0-2.759,1.291L20.027,217.8c-1.977,2.058-2.659,2.45-3.187,3.517H2.947a2.07,2.07,0,0,1-2.068-2.068V215.22a.439.439,0,1,0-.879,0v4.027a2.95,2.95,0,0,0,2.947,2.947Zm20.439,3.647a3.592,3.592,0,1,1-5.079-5.079l2.032-2.032,5.079,5.079Zm4.686-4.685-2.032,2.031-5.079-5.079c2.181-2.178,2.265-2.332,2.9-2.673a3.593,3.593,0,0,1,4.212,5.72Z" transform="translate(0 -180.742)"/></g></svg>