<svg xmlns="http://www.w3.org/2000/svg" width="30.529" height="28" viewBox="0 0 30.529 28"><defs><style>.a,.b{fill:#fff;stroke:#aaa;}.b{stroke-linecap:round;stroke-linejoin:round;}.c{stroke:none;}.d{fill:none;}</style></defs><g transform="translate(-153.5 -2670.32)"><g class="a" transform="translate(163 2670.32)"><ellipse class="c" cx="3" cy="2.5" rx="3" ry="2.5"/><ellipse class="d" cx="3" cy="2.5" rx="2.5" ry="2"/></g><g class="a" transform="translate(161 2689.32)"><circle class="c" cx="4.5" cy="4.5" r="4.5"/><circle class="d" cx="4.5" cy="4.5" r="4"/></g><g transform="translate(154 2674.168)"><path class="b" d="M24.212,10.885a7.885,7.885,0,1,0-15.769,0c0,9.2-3.942,11.827-3.942,11.827H28.154s-3.942-2.628-3.942-11.827" transform="translate(-4.5 -3)"/></g><g transform="translate(169.093 2675.313)"><path class="b" d="M17.435,10.218A7.218,7.218,0,1,1,10.218,3,7.218,7.218,0,0,1,17.435,10.218Z" transform="translate(-3 -3)"/><path class="b" d="M18,9v4.331l2.887,1.444" transform="translate(-10.782 -6.113)"/></g></g></svg>