<svg xmlns="http://www.w3.org/2000/svg" width="24" height="24" viewBox="0 0 24 24"><defs><style>.a{fill:none;stroke:#1686c5;stroke-linecap:round;stroke-linejoin:round;}</style></defs><g transform="translate(0.5 0.5)"><path class="a" d="M20.955,15.727A5.227,5.227,0,1,1,15.727,10.5,5.227,5.227,0,0,1,20.955,15.727Z" transform="translate(-4.227 -4.227)"/><path class="a" d="M18,1.5V3.591" transform="translate(-6.5 -1.5)"/><path class="a" d="M18,31.5v2.091" transform="translate(-6.5 -10.591)"/><path class="a" d="M6.33,6.33,7.815,7.815" transform="translate(-2.964 -2.964)"/><path class="a" d="M27.54,27.54l1.485,1.485" transform="translate(-9.391 -9.391)"/><path class="a" d="M1.5,18H3.591" transform="translate(-1.5 -6.5)"/><path class="a" d="M31.5,18h2.091" transform="translate(-10.591 -6.5)"/><path class="a" d="M6.33,29.025,7.815,27.54" transform="translate(-2.964 -9.391)"/><path class="a" d="M27.54,7.815,29.025,6.33" transform="translate(-9.391 -2.964)"/></g></svg>